<svg width="200" height="50" viewBox="0 0 297 85" fill="none" xmlns="http://www.w3.org/2000/svg">
<path d="M119.408 30.664V34.28H113.456V53H108.976V34.28H103.024V30.664H119.408ZM127.157 38.024C127.733 37.0853 128.479 36.3493 129.397 35.816C130.335 35.2827 131.402 35.016 132.597 35.016V39.72H131.413C130.005 39.72 128.938 40.0507 128.213 40.712C127.509 41.3733 127.157 42.5253 127.157 44.168V53H122.677V35.272H127.157V38.024ZM152.35 35.272V53H147.838V50.76C147.262 51.528 146.505 52.136 145.566 52.584C144.649 53.0107 143.646 53.224 142.558 53.224C141.172 53.224 139.945 52.936 138.878 52.36C137.812 51.7627 136.969 50.8987 136.35 49.768C135.753 48.616 135.454 47.2507 135.454 45.672V35.272H139.934V45.032C139.934 46.44 140.286 47.528 140.99 48.296C141.694 49.0427 142.654 49.416 143.87 49.416C145.108 49.416 146.078 49.0427 146.782 48.296C147.486 47.528 147.838 46.44 147.838 45.032V35.272H152.35ZM163.555 53.288C162.104 53.288 160.803 53.032 159.651 52.52C158.499 51.9867 157.581 51.272 156.899 50.376C156.237 49.48 155.875 48.488 155.811 47.4H160.323C160.408 48.0827 160.739 48.648 161.315 49.096C161.912 49.544 162.648 49.768 163.523 49.768C164.376 49.768 165.037 49.5973 165.507 49.256C165.997 48.9147 166.243 48.4773 166.243 47.944C166.243 47.368 165.944 46.9413 165.347 46.664C164.771 46.3653 163.843 46.0453 162.562 45.704C161.24 45.384 160.152 45.0533 159.299 44.712C158.467 44.3707 157.741 43.848 157.123 43.144C156.525 42.44 156.227 41.4907 156.227 40.296C156.227 39.3147 156.504 38.4187 157.059 37.608C157.635 36.7973 158.445 36.1573 159.491 35.688C160.557 35.2187 161.805 34.984 163.235 34.984C165.347 34.984 167.032 35.5173 168.291 36.584C169.549 37.6293 170.243 39.048 170.371 40.84H166.083C166.019 40.136 165.72 39.5813 165.187 39.176C164.675 38.7493 163.981 38.536 163.107 38.536C162.296 38.536 161.667 38.6853 161.219 38.984C160.792 39.2827 160.579 39.6987 160.579 40.232C160.579 40.8293 160.877 41.288 161.475 41.608C162.072 41.9067 163 42.216 164.259 42.536C165.539 42.856 166.595 43.1867 167.427 43.528C168.259 43.8693 168.973 44.4027 169.571 45.128C170.189 45.832 170.509 46.7707 170.531 47.944C170.531 48.968 170.243 49.8853 169.667 50.696C169.112 51.5067 168.301 52.1467 167.235 52.616C166.189 53.064 164.963 53.288 163.555 53.288ZM179.424 38.952V47.528C179.424 48.1253 179.563 48.5627 179.84 48.84C180.139 49.096 180.629 49.224 181.312 49.224H183.392V53H180.576C176.8 53 174.912 51.1653 174.912 47.496V38.952H172.8V35.272H174.912V30.888H179.424V35.272H183.392V38.952H179.424ZM224.095 30.664L217.855 53H212.575L208.383 37.096L203.999 53L198.751 53.032L192.735 30.664H197.535L201.471 48.008L206.015 30.664H211.007L215.295 47.912L219.263 30.664H224.095ZM225.868 44.072C225.868 42.28 226.22 40.6907 226.924 39.304C227.65 37.9173 228.621 36.8507 229.837 36.104C231.074 35.3573 232.45 34.984 233.965 34.984C235.287 34.984 236.439 35.2507 237.421 35.784C238.423 36.3173 239.223 36.9893 239.821 37.8V35.272H244.333V53H239.821V50.408C239.245 51.24 238.445 51.9333 237.421 52.488C236.418 53.0213 235.255 53.288 233.933 53.288C232.439 53.288 231.074 52.904 229.837 52.136C228.621 51.368 227.65 50.2907 226.924 48.904C226.22 47.496 225.868 45.8853 225.868 44.072ZM239.821 44.136C239.821 43.048 239.607 42.12 239.181 41.352C238.754 40.5627 238.178 39.9653 237.453 39.56C236.727 39.1333 235.949 38.92 235.117 38.92C234.285 38.92 233.517 39.1227 232.812 39.528C232.109 39.9333 231.533 40.5307 231.085 41.32C230.658 42.088 230.445 43.0053 230.445 44.072C230.445 45.1387 230.658 46.0773 231.085 46.888C231.533 47.6773 232.109 48.2853 232.812 48.712C233.538 49.1387 234.306 49.352 235.117 49.352C235.949 49.352 236.727 49.1493 237.453 48.744C238.178 48.3173 238.754 47.72 239.181 46.952C239.607 46.1627 239.821 45.224 239.821 44.136ZM253.188 29.32V53H248.708V29.32H253.188ZM262.094 29.32V53H257.614V29.32H262.094ZM283.001 43.752C283.001 44.392 282.958 44.968 282.873 45.48H269.913C270.019 46.76 270.467 47.7627 271.257 48.488C272.046 49.2133 273.017 49.576 274.169 49.576C275.833 49.576 277.017 48.8613 277.721 47.432H282.553C282.041 49.1387 281.059 50.5467 279.609 51.656C278.158 52.744 276.377 53.288 274.265 53.288C272.558 53.288 271.022 52.9147 269.657 52.168C268.313 51.4 267.257 50.3227 266.489 48.936C265.742 47.5493 265.368 45.9493 265.368 44.136C265.368 42.3013 265.742 40.6907 266.489 39.304C267.235 37.9173 268.281 36.8507 269.625 36.104C270.969 35.3573 272.515 34.984 274.265 34.984C275.95 34.984 277.454 35.3467 278.777 36.072C280.121 36.7973 281.155 37.832 281.881 39.176C282.627 40.4987 283.001 42.024 283.001 43.752ZM278.361 42.472C278.339 41.32 277.923 40.4027 277.113 39.72C276.302 39.016 275.31 38.664 274.137 38.664C273.027 38.664 272.089 39.0053 271.321 39.688C270.574 40.3493 270.115 41.2773 269.945 42.472H278.361ZM291.487 38.952V47.528C291.487 48.1253 291.625 48.5627 291.903 48.84C292.201 49.096 292.692 49.224 293.375 49.224H295.455V53H292.639C288.863 53 286.975 51.1653 286.975 47.496V38.952H284.863V35.272H286.975V30.888H291.487V35.272H295.455V38.952H291.487Z" fill="white"/>
<path d="M0 18C0 8.05887 8.05888 0 18 0H66C75.9411 0 84 8.05887 84 18V67C84 76.9411 75.9411 85 66 85H18C8.05888 85 0 76.9411 0 67V18Z" fill="white"/>
<path d="M42.0008 68.9991C44.0922 68.9132 55.9078 63.253 60.23 56.895C64.5523 50.5369 66.842 33.6131 67 22.4477C54.5058 22.4491 46.4206 18.9489 42.0008 15C37.5778 18.953 29.5112 22.4491 17 22.4491C17 33.6158 19.6026 50.4414 23.7715 56.895C27.9404 63.3499 39.9094 69.0835 42.0008 68.9991Z" stroke="#228BE6" stroke-width="5" stroke-linecap="round" stroke-linejoin="round"/>
</svg>
