<svg width="250" height="65" viewBox="0 0 347 61" fill="none" xmlns="http://www.w3.org/2000/svg">
<path d="M18.2191 11.9154C32.7372 -3.9718 56.2665 -3.9718 70.7809 11.9154L72.5275 13.8272C72.7 14.0139 72.8372 14.2376 72.9308 14.4848C73.0245 14.732 73.0727 14.9977 73.0727 15.2662C73.0727 15.5347 73.0245 15.8004 72.9308 16.0476C72.8372 16.2948 72.7 16.5184 72.5275 16.7052L66.5534 23.245C66.3785 23.438 66.1427 23.5462 65.897 23.5462C65.6514 23.5462 65.4156 23.438 65.2407 23.245L62.834 20.6158C52.7102 9.53087 36.2935 9.53087 26.1697 20.6158L23.5962 23.4358C23.4197 23.6271 23.1837 23.734 22.9379 23.734C22.6922 23.734 22.4561 23.6271 22.2797 23.4358L16.3056 16.8918C16.1332 16.7054 15.9962 16.4821 15.9025 16.2353C15.8089 15.9884 15.7607 15.723 15.7607 15.4549C15.7607 15.1867 15.8089 14.9213 15.9025 14.6745C15.9962 14.4276 16.1332 14.2043 16.3056 14.0179L18.2191 11.9154ZM83.1371 25.4471L88.4548 31.2695C88.6273 31.4563 88.7644 31.6799 88.8581 31.9271C88.9517 32.1743 89 32.44 89 32.7085C89 32.977 88.9517 33.2427 88.8581 33.4899C88.7644 33.7371 88.6273 33.9608 88.4548 34.1475L64.4768 60.4023C64.125 60.7855 63.6533 61 63.1622 61C62.671 61 62.1993 60.7855 61.8475 60.4023L44.8338 41.7697C44.7462 41.672 44.6275 41.6171 44.5037 41.6171C44.38 41.6171 44.2613 41.672 44.1737 41.7697L27.1562 60.4023C26.8044 60.7855 26.3327 61 25.8416 61C25.3504 61 24.8787 60.7855 24.527 60.4023L0.545212 34.1475C0.372733 33.9608 0.235587 33.7371 0.141926 33.4899C0.0482649 33.2427 0 32.977 0 32.7085C0 32.44 0.0482649 32.1743 0.141926 31.9271C0.235587 31.6799 0.372733 31.4563 0.545212 31.2695L5.86295 25.4471C6.21472 25.0638 6.68643 24.8493 7.17755 24.8493C7.66868 24.8493 8.14038 25.0638 8.49216 25.4471L25.5097 44.0796C25.6951 44.2787 25.988 44.2787 26.1697 44.0796L43.1873 25.4471C43.539 25.0638 44.0107 24.8493 44.5019 24.8493C44.993 24.8493 45.4647 25.0638 45.8165 25.4471L62.834 44.0796C63.0194 44.2787 63.3086 44.2787 63.494 44.0796L80.5116 25.4471C80.8627 25.0641 81.3338 24.8497 81.8243 24.8497C82.3148 24.8497 82.7859 25.0641 83.1371 25.4471Z" fill="#3999FD"/>
<path d="M135.064 18.664L128.824 41H123.544L119.352 25.096L114.968 41L109.72 41.032L103.704 18.664H108.504L112.44 36.008L116.984 18.664H121.976L126.264 35.912L130.232 18.664H135.064ZM136.837 32.072C136.837 30.28 137.189 28.6907 137.893 27.304C138.619 25.9173 139.589 24.8507 140.805 24.104C142.043 23.3573 143.419 22.984 144.933 22.984C146.256 22.984 147.408 23.2507 148.389 23.784C149.392 24.3173 150.192 24.9893 150.789 25.8V23.272H155.301V41H150.789V38.408C150.213 39.24 149.413 39.9333 148.389 40.488C147.387 41.0213 146.224 41.288 144.901 41.288C143.408 41.288 142.043 40.904 140.805 40.136C139.589 39.368 138.619 38.2907 137.893 36.904C137.189 35.496 136.837 33.8853 136.837 32.072ZM150.789 32.136C150.789 31.048 150.576 30.12 150.149 29.352C149.723 28.5627 149.147 27.9653 148.421 27.56C147.696 27.1333 146.917 26.92 146.085 26.92C145.253 26.92 144.485 27.1227 143.781 27.528C143.077 27.9333 142.501 28.5307 142.053 29.32C141.627 30.088 141.413 31.0053 141.413 32.072C141.413 33.1387 141.627 34.0773 142.053 34.888C142.501 35.6773 143.077 36.2853 143.781 36.712C144.507 37.1387 145.275 37.352 146.085 37.352C146.917 37.352 147.696 37.1493 148.421 36.744C149.147 36.3173 149.723 35.72 150.149 34.952C150.576 34.1627 150.789 33.224 150.789 32.136ZM164.157 17.32V41H159.677V17.32H164.157ZM173.063 17.32V41H168.583V17.32H173.063ZM193.969 31.752C193.969 32.392 193.927 32.968 193.841 33.48H180.881C180.988 34.76 181.436 35.7627 182.225 36.488C183.015 37.2133 183.985 37.576 185.137 37.576C186.801 37.576 187.985 36.8613 188.689 35.432H193.521C193.009 37.1387 192.028 38.5467 190.577 39.656C189.127 40.744 187.345 41.288 185.233 41.288C183.527 41.288 181.991 40.9147 180.625 40.168C179.281 39.4 178.225 38.3227 177.457 36.936C176.711 35.5493 176.337 33.9493 176.337 32.136C176.337 30.3013 176.711 28.6907 177.457 27.304C178.204 25.9173 179.249 24.8507 180.593 24.104C181.937 23.3573 183.484 22.984 185.233 22.984C186.919 22.984 188.423 23.3467 189.745 24.072C191.089 24.7973 192.124 25.832 192.849 27.176C193.596 28.4987 193.969 30.024 193.969 31.752ZM189.329 30.472C189.308 29.32 188.892 28.4027 188.081 27.72C187.271 27.016 186.279 26.664 185.105 26.664C183.996 26.664 183.057 27.0053 182.289 27.688C181.543 28.3493 181.084 29.2773 180.913 30.472H189.329ZM202.455 26.952V35.528C202.455 36.1253 202.594 36.5627 202.871 36.84C203.17 37.096 203.661 37.224 204.343 37.224H206.423V41H203.607C199.831 41 197.943 39.1653 197.943 35.496V26.952H195.831V23.272H197.943V18.888H202.455V23.272H206.423V26.952H202.455ZM208.558 29.8C208.558 27.6027 209.048 25.64 210.03 23.912C211.032 22.1627 212.387 20.808 214.094 19.848C215.822 18.8667 217.752 18.376 219.886 18.376C222.382 18.376 224.568 19.016 226.446 20.296C228.323 21.576 229.635 23.3467 230.382 25.608H225.23C224.718 24.5413 223.992 23.7413 223.054 23.208C222.136 22.6747 221.07 22.408 219.854 22.408C218.552 22.408 217.39 22.7173 216.366 23.336C215.363 23.9333 214.574 24.7867 213.998 25.896C213.443 27.0053 213.166 28.3067 213.166 29.8C213.166 31.272 213.443 32.5733 213.998 33.704C214.574 34.8133 215.363 35.6773 216.366 36.296C217.39 36.8933 218.552 37.192 219.854 37.192C221.07 37.192 222.136 36.9253 223.054 36.392C223.992 35.8373 224.718 35.0267 225.23 33.96H230.382C229.635 36.2427 228.323 38.024 226.446 39.304C224.59 40.5627 222.403 41.192 219.886 41.192C217.752 41.192 215.822 40.712 214.094 39.752C212.387 38.7707 211.032 37.416 210.03 35.688C209.048 33.96 208.558 31.9973 208.558 29.8ZM242.08 41.288C240.373 41.288 238.837 40.9147 237.472 40.168C236.107 39.4 235.029 38.3227 234.24 36.936C233.472 35.5493 233.088 33.9493 233.088 32.136C233.088 30.3227 233.483 28.7227 234.272 27.336C235.083 25.9493 236.181 24.8827 237.568 24.136C238.955 23.368 240.501 22.984 242.208 22.984C243.915 22.984 245.461 23.368 246.848 24.136C248.235 24.8827 249.323 25.9493 250.112 27.336C250.923 28.7227 251.328 30.3227 251.328 32.136C251.328 33.9493 250.912 35.5493 250.08 36.936C249.269 38.3227 248.16 39.4 246.752 40.168C245.365 40.9147 243.808 41.288 242.08 41.288ZM242.08 37.384C242.891 37.384 243.648 37.192 244.352 36.808C245.077 36.4027 245.653 35.8053 246.08 35.016C246.507 34.2267 246.72 33.2667 246.72 32.136C246.72 30.4507 246.272 29.16 245.376 28.264C244.501 27.3467 243.424 26.888 242.144 26.888C240.864 26.888 239.787 27.3467 238.912 28.264C238.059 29.16 237.632 30.4507 237.632 32.136C237.632 33.8213 238.048 35.1227 238.88 36.04C239.733 36.936 240.8 37.384 242.08 37.384ZM264.438 23.016C266.55 23.016 268.257 23.688 269.558 25.032C270.86 26.3547 271.51 28.2107 271.51 30.6V41H267.03V31.208C267.03 29.8 266.678 28.7227 265.974 27.976C265.27 27.208 264.31 26.824 263.094 26.824C261.857 26.824 260.876 27.208 260.15 27.976C259.446 28.7227 259.094 29.8 259.094 31.208V41H254.614V23.272H259.094V25.48C259.692 24.712 260.449 24.1147 261.366 23.688C262.305 23.24 263.329 23.016 264.438 23.016ZM285.595 23.016C287.707 23.016 289.413 23.688 290.715 25.032C292.016 26.3547 292.667 28.2107 292.667 30.6V41H288.187V31.208C288.187 29.8 287.835 28.7227 287.131 27.976C286.427 27.208 285.467 26.824 284.251 26.824C283.013 26.824 282.032 27.208 281.307 27.976C280.603 28.7227 280.251 29.8 280.251 31.208V41H275.771V23.272H280.251V25.48C280.848 24.712 281.605 24.1147 282.523 23.688C283.461 23.24 284.485 23.016 285.595 23.016ZM313.407 31.752C313.407 32.392 313.364 32.968 313.279 33.48H300.319C300.425 34.76 300.873 35.7627 301.663 36.488C302.452 37.2133 303.423 37.576 304.575 37.576C306.239 37.576 307.423 36.8613 308.127 35.432H312.959C312.447 37.1387 311.465 38.5467 310.015 39.656C308.564 40.744 306.783 41.288 304.671 41.288C302.964 41.288 301.428 40.9147 300.063 40.168C298.719 39.4 297.663 38.3227 296.895 36.936C296.148 35.5493 295.775 33.9493 295.775 32.136C295.775 30.3013 296.148 28.6907 296.895 27.304C297.641 25.9173 298.687 24.8507 300.031 24.104C301.375 23.3573 302.921 22.984 304.671 22.984C306.356 22.984 307.86 23.3467 309.183 24.072C310.527 24.7973 311.561 25.832 312.287 27.176C313.033 28.4987 313.407 30.024 313.407 31.752ZM308.767 30.472C308.745 29.32 308.329 28.4027 307.519 27.72C306.708 27.016 305.716 26.664 304.543 26.664C303.433 26.664 302.495 27.0053 301.727 27.688C300.98 28.3493 300.521 29.2773 300.351 30.472H308.767ZM315.525 32.136C315.525 30.3013 315.898 28.7013 316.645 27.336C317.391 25.9493 318.426 24.8827 319.749 24.136C321.071 23.368 322.586 22.984 324.293 22.984C326.49 22.984 328.303 23.5387 329.733 24.648C331.183 25.736 332.154 27.272 332.645 29.256H327.813C327.557 28.488 327.119 27.8907 326.501 27.464C325.903 27.016 325.157 26.792 324.261 26.792C322.981 26.792 321.967 27.2613 321.221 28.2C320.474 29.1173 320.101 30.4293 320.101 32.136C320.101 33.8213 320.474 35.1333 321.221 36.072C321.967 36.9893 322.981 37.448 324.261 37.448C326.074 37.448 327.258 36.6373 327.813 35.016H332.645C332.154 36.936 331.183 38.4613 329.733 39.592C328.282 40.7227 326.469 41.288 324.293 41.288C322.586 41.288 321.071 40.9147 319.749 40.168C318.426 39.4 317.391 38.3333 316.645 36.968C315.898 35.5813 315.525 33.9707 315.525 32.136ZM341.143 26.952V35.528C341.143 36.1253 341.281 36.5627 341.559 36.84C341.857 37.096 342.348 37.224 343.031 37.224H345.111V41H342.295C338.519 41 336.631 39.1653 336.631 35.496V26.952H334.519V23.272H336.631V18.888H341.143V23.272H345.111V26.952H341.143Z" fill="white"/>
</svg>
